<?xml version="1.0" standalone="no"?>
<svg viewBox="0 0 200 200" xmlns="http://www.w3.org/2000/svg">
  <path fill="#FF0066" d="M44.8,-69.8C59.1,-60.6,72.5,-49.9,79.9,-35.8C87.3,-21.8,88.8,-4.4,81,7.8C73.2,19.9,56.1,26.8,44.9,38C33.8,49.1,28.6,64.4,18,72.9C7.3,81.3,-8.7,82.9,-19.6,75.6C-30.6,68.4,-36.3,52.5,-42.5,39.9C-48.7,27.3,-55.2,18.1,-56.6,8.1C-58,-1.8,-54.4,-12.5,-50.9,-24.6C-47.5,-36.8,-44.3,-50.4,-35.9,-62.2C-27.4,-74.1,-13.7,-84.2,0.8,-85.5C15.3,-86.7,30.6,-79,44.8,-69.8Z" transform="translate(100 100)" />
</svg>
